<svg width="149" height="25" viewBox="0 0 149 25" fill="none" xmlns="http://www.w3.org/2000/svg">
<path d="M22.6547 0H5.468C5.2727 0 5.08716 0.0976515 4.97974 0.263659L0.0971685 7.45081C-0.0444262 7.66564 -0.0297784 7.94883 0.131347 8.14413L13.6073 24.7839C13.8416 25.072 14.281 25.072 14.5154 24.7839L27.9913 8.14413C28.1524 7.94395 28.1671 7.66564 28.0255 7.45081L23.1478 0.263659C23.0355 0.0976515 22.8548 0 22.6547 0ZM21.7123 2.34364L24.803 7.03091H21.4633L18.939 2.34364H21.7123ZM11.8446 2.34364H16.2731L18.7974 7.03091H9.32523L11.8446 2.34364ZM6.41034 2.34364H9.18364L6.65935 7.03091H3.31967L6.41034 2.34364ZM4.31083 9.37454H6.82047L10.1553 17.1867L4.31083 9.37454ZM9.335 9.37454H18.7877L14.0613 21.2538L9.335 9.37454ZM17.9674 17.1867L21.2973 9.37454H23.8069L17.9674 17.1867Z" fill="white"/>
<path d="M45.0039 9.97656C45.5833 9.74219 46.0911 9.5013 46.5273 9.25391C46.9635 9.00651 47.3281 8.76237 47.6211 8.52148C47.9141 8.27409 48.1354 8.03646 48.2852 7.80859C48.4349 7.58073 48.5098 7.3724 48.5098 7.18359C48.5098 7.11849 48.4772 7.04362 48.4121 6.95898C48.347 6.87435 48.2461 6.79622 48.1094 6.72461C47.9792 6.65299 47.8132 6.5944 47.6113 6.54883C47.4095 6.49674 47.1751 6.4707 46.9082 6.4707C46.1921 6.4707 45.528 6.55859 44.916 6.73438C44.304 6.90365 43.7474 7.11198 43.2461 7.35938C42.7448 7.60677 42.3021 7.86719 41.918 8.14062C41.5339 8.40755 41.2116 8.64193 40.9512 8.84375C40.7884 8.96745 40.6452 9.09115 40.5215 9.21484C40.4043 9.33203 40.2871 9.43945 40.1699 9.53711C40.0592 9.62826 39.9388 9.70312 39.8086 9.76172C39.6784 9.82031 39.5221 9.84961 39.3398 9.84961C39.0664 9.84961 38.8516 9.78451 38.6953 9.6543C38.5456 9.52409 38.4707 9.3418 38.4707 9.10742C38.4707 8.82747 38.5814 8.53125 38.8027 8.21875C39.0241 7.89974 39.3301 7.58398 39.7207 7.27148C40.1113 6.95898 40.5703 6.66276 41.0977 6.38281C41.625 6.09635 42.1914 5.8457 42.7969 5.63086C43.4089 5.41602 44.0436 5.24349 44.7012 5.11328C45.3652 4.98307 46.0293 4.91797 46.6934 4.91797C47.377 4.91797 47.9661 4.97331 48.4609 5.08398C48.9557 5.19466 49.3594 5.34766 49.6719 5.54297C49.9909 5.73828 50.2253 5.9694 50.375 6.23633C50.5312 6.50326 50.6094 6.79297 50.6094 7.10547C50.6094 7.41797 50.5052 7.74349 50.2969 8.08203C50.0885 8.42057 49.7891 8.75911 49.3984 9.09766C49.0143 9.4362 48.5423 9.76172 47.9824 10.0742C47.429 10.3802 46.804 10.6602 46.1074 10.9141C46.7975 11.1419 47.3574 11.3828 47.7871 11.6367C48.2233 11.8841 48.5618 12.1445 48.8027 12.418C49.0501 12.6849 49.2161 12.9648 49.3008 13.2578C49.3854 13.5443 49.4277 13.8405 49.4277 14.1465C49.4277 14.5957 49.304 15.0384 49.0566 15.4746C48.8092 15.9108 48.4642 16.3242 48.0215 16.7148C47.5853 17.099 47.0645 17.457 46.459 17.7891C45.86 18.1146 45.2057 18.3978 44.4961 18.6387C43.7865 18.873 43.0378 19.0553 42.25 19.1855C41.4622 19.3223 40.6647 19.3906 39.8574 19.3906C39.571 19.3906 39.2812 19.3743 38.9883 19.3418C38.6953 19.3092 38.4251 19.2507 38.1777 19.166C37.9368 19.0814 37.7383 18.9674 37.582 18.8242C37.4323 18.681 37.3574 18.4954 37.3574 18.2676C37.3574 18.2415 37.3574 18.2188 37.3574 18.1992C37.3639 18.1732 37.3704 18.1439 37.377 18.1113C37.403 18.0592 37.4323 17.9974 37.4648 17.9258C37.4974 17.8477 37.5723 17.7728 37.6895 17.7012C37.8066 17.6296 37.9889 17.571 38.2363 17.5254C38.4902 17.4733 38.8516 17.4473 39.3203 17.4473C40.1341 15.9564 40.8047 14.6738 41.332 13.5996C41.8659 12.5189 42.3118 11.6302 42.6699 10.9336C43.028 10.237 43.3275 9.72266 43.5684 9.39062C43.8158 9.05859 44.0566 8.89258 44.291 8.89258C44.3952 8.89258 44.4961 8.90885 44.5938 8.94141C44.6914 8.97396 44.776 9.01953 44.8477 9.07812C44.9258 9.13021 44.9876 9.19857 45.0332 9.2832C45.0788 9.36133 45.1016 9.44922 45.1016 9.54688C45.0495 9.61198 45.0202 9.68034 45.0137 9.75195C45.0072 9.81706 45.0039 9.89193 45.0039 9.97656ZM44.4668 11.8418C44.1738 12.5059 43.8971 13.1016 43.6367 13.6289C43.3828 14.1562 43.1419 14.6413 42.9141 15.084C42.6862 15.5202 42.4681 15.9303 42.2598 16.3145C42.0579 16.6921 41.8594 17.0632 41.6641 17.4277C42.4193 17.3626 43.1224 17.2324 43.7734 17.0371C44.431 16.8353 45.0007 16.5879 45.4824 16.2949C45.9707 16.002 46.3516 15.6732 46.625 15.3086C46.9049 14.944 47.0449 14.5599 47.0449 14.1562C47.0449 13.974 47.0026 13.7819 46.918 13.5801C46.8398 13.3783 46.7031 13.1764 46.5078 12.9746C46.3125 12.7728 46.0488 12.5742 45.7168 12.3789C45.3848 12.1836 44.9681 12.0046 44.4668 11.8418ZM53.5391 13.3066C53.793 13.1504 54.0534 13.0072 54.3203 12.877C54.5938 12.7467 54.8574 12.6361 55.1113 12.5449C55.3652 12.4473 55.6061 12.3724 55.834 12.3203C56.0684 12.2617 56.2767 12.2324 56.459 12.2324C56.752 12.2324 56.9766 12.304 57.1328 12.4473C57.2956 12.584 57.377 12.8184 57.377 13.1504C57.377 13.222 57.3737 13.3001 57.3672 13.3848C57.3607 13.4629 57.3477 13.5475 57.3281 13.6387C57.2956 13.8079 57.1979 14.0065 57.0352 14.2344C56.8724 14.4622 56.6803 14.6999 56.459 14.9473C56.2441 15.1947 56.0098 15.4453 55.7559 15.6992C55.5085 15.9466 55.2773 16.1777 55.0625 16.3926C54.8542 16.6009 54.6784 16.7832 54.5352 16.9395C54.3984 17.0957 54.3301 17.2031 54.3301 17.2617C54.3301 17.3138 54.3333 17.3496 54.3398 17.3691C54.3464 17.3887 54.3757 17.3984 54.4277 17.3984C54.7793 17.2487 55.1699 17.0697 55.5996 16.8613C56.0358 16.6465 56.4688 16.4284 56.8984 16.207C57.3281 15.9857 57.735 15.7708 58.1191 15.5625C58.5033 15.3477 58.8288 15.1621 59.0957 15.0059C59.1543 14.9733 59.2129 14.9473 59.2715 14.9277C59.3366 14.9017 59.3952 14.8887 59.4473 14.8887C59.5645 14.8887 59.6621 14.9277 59.7402 15.0059C59.8184 15.084 59.8574 15.1882 59.8574 15.3184C59.8574 15.4681 59.7923 15.6406 59.6621 15.8359C59.5384 16.0247 59.3268 16.2233 59.0273 16.4316C58.7995 16.5749 58.5423 16.7376 58.2559 16.9199C57.9759 17.0957 57.6797 17.2812 57.3672 17.4766C57.0612 17.6654 56.7487 17.8509 56.4297 18.0332C56.1172 18.2155 55.8145 18.3783 55.5215 18.5215C55.2285 18.6647 54.9518 18.7819 54.6914 18.873C54.4375 18.9577 54.2161 19 54.0273 19C53.5781 19 53.2396 18.8926 53.0117 18.6777C52.7904 18.4629 52.6797 18.1862 52.6797 17.8477C52.6797 17.7956 52.6829 17.7565 52.6895 17.7305C52.735 17.444 52.8197 17.1673 52.9434 16.9004C53.0671 16.6335 53.207 16.3796 53.3633 16.1387C53.5195 15.8978 53.6823 15.6699 53.8516 15.4551C54.0208 15.2337 54.1738 15.0286 54.3105 14.8398C54.4538 14.6445 54.571 14.4655 54.6621 14.3027C54.7533 14.14 54.7988 13.9902 54.7988 13.8535C54.7988 13.821 54.7923 13.7884 54.7793 13.7559C54.7663 13.7233 54.737 13.707 54.6914 13.707C54.6133 13.707 54.4831 13.7363 54.3008 13.7949C54.125 13.8535 53.9362 13.9316 53.7344 14.0293C53.5326 14.127 53.3405 14.2409 53.1582 14.3711C52.9759 14.4948 52.8457 14.6283 52.7676 14.7715C52.6634 14.9538 52.543 15.1849 52.4062 15.4648C52.2695 15.7448 52.1263 16.0378 51.9766 16.3438C51.8333 16.6497 51.6934 16.9525 51.5566 17.252C51.4199 17.5514 51.3027 17.8086 51.2051 18.0234C51.127 18.2122 51.0228 18.3815 50.8926 18.5312C50.7689 18.681 50.6322 18.8079 50.4824 18.9121C50.3327 19.0163 50.1797 19.0977 50.0234 19.1562C49.8672 19.2148 49.724 19.2441 49.5938 19.2441C49.444 19.2441 49.3236 19.2051 49.2324 19.127C49.1478 19.0488 49.1055 18.9219 49.1055 18.7461C49.1055 18.6745 49.1152 18.5866 49.1348 18.4824C49.1608 18.3717 49.2096 18.2513 49.2812 18.1211C49.3984 17.8997 49.5156 17.6589 49.6328 17.3984C49.7565 17.138 49.8965 16.8418 50.0527 16.5098C50.209 16.1712 50.388 15.7871 50.5898 15.3574C50.7982 14.9212 51.0423 14.4199 51.3223 13.8535C51.2311 13.7754 51.153 13.681 51.0879 13.5703C51.0293 13.4531 51 13.3099 51 13.1406C51 12.9844 51.0326 12.8509 51.0977 12.7402C51.1628 12.623 51.2507 12.5286 51.3613 12.457C51.472 12.3854 51.599 12.3333 51.7422 12.3008C51.8919 12.2617 52.0482 12.2422 52.2109 12.2422C52.3802 12.2422 52.5495 12.2585 52.7188 12.291C52.888 12.3171 53.0378 12.3594 53.168 12.418C53.3047 12.4766 53.4154 12.5482 53.5 12.6328C53.5846 12.7174 53.627 12.8151 53.627 12.9258C53.627 12.9453 53.6204 12.9714 53.6074 13.0039C53.5944 13.0365 53.5781 13.0723 53.5586 13.1113C53.5456 13.1504 53.5326 13.1862 53.5195 13.2188C53.5065 13.2513 53.5 13.2773 53.5 13.2969C53.5 13.3099 53.5033 13.3164 53.5098 13.3164H53.5195L53.5391 13.3066ZM59.7598 12.75C59.8704 12.5677 59.9974 12.4375 60.1406 12.3594C60.2839 12.2812 60.4303 12.2422 60.5801 12.2422C60.8275 12.2422 61.0391 12.3236 61.2148 12.4863C61.3971 12.6426 61.4883 12.8444 61.4883 13.0918C61.4818 13.1504 61.472 13.209 61.459 13.2676C61.4525 13.3262 61.4329 13.3848 61.4004 13.4434C61.3092 13.6126 61.2344 13.7559 61.1758 13.873C61.1172 13.9902 61.0618 14.1009 61.0098 14.2051C60.9642 14.3027 60.9186 14.4004 60.873 14.498C60.8275 14.5957 60.7721 14.7129 60.707 14.8496C60.6289 15.0124 60.541 15.1914 60.4434 15.3867C60.3457 15.5755 60.2513 15.7708 60.1602 15.9727C60.0755 16.1745 60.0007 16.373 59.9355 16.5684C59.877 16.7637 59.8477 16.9427 59.8477 17.1055C59.8477 17.2812 59.89 17.3919 59.9746 17.4375C60.0658 17.4766 60.1927 17.4961 60.3555 17.4961C60.6289 17.4961 60.9186 17.418 61.2246 17.2617C61.5371 17.099 61.8366 16.9036 62.123 16.6758C62.416 16.4479 62.6829 16.2103 62.9238 15.9629C63.1712 15.7155 63.3698 15.5072 63.5195 15.3379L63.832 16.666C63.5 17.0046 63.1615 17.3268 62.8164 17.6328C62.4714 17.9388 62.1165 18.209 61.752 18.4434C61.3939 18.6777 61.0326 18.8633 60.668 19C60.3034 19.1432 59.9355 19.2148 59.5645 19.2148C59.0436 19.2148 58.6302 19.0846 58.3242 18.8242C58.0182 18.5573 57.8652 18.1406 57.8652 17.5742C57.8652 17.2747 57.9076 16.9818 57.9922 16.6953C58.0768 16.4089 58.1777 16.1322 58.2949 15.8652C58.4121 15.5918 58.5358 15.3314 58.666 15.084C58.7962 14.8301 58.9069 14.5892 58.998 14.3613C59.0306 14.2767 59.0859 14.1465 59.1641 13.9707C59.2487 13.7949 59.3366 13.6159 59.4277 13.4336C59.5319 13.2188 59.6426 12.9909 59.7598 12.75ZM61.9277 9.80078C62.1621 9.39062 62.3965 8.98372 62.6309 8.58008C62.8717 8.17643 63.1061 7.76953 63.334 7.35938C63.5814 6.94922 63.8353 6.65951 64.0957 6.49023C64.3561 6.32096 64.5905 6.23633 64.7988 6.23633C64.9941 6.23633 65.1536 6.29818 65.2773 6.42188C65.401 6.54557 65.4629 6.70833 65.4629 6.91016C65.4629 7.04036 65.4336 7.18359 65.375 7.33984C65.3164 7.49609 65.2122 7.65885 65.0625 7.82812C64.7109 8.23828 64.3561 8.64518 63.998 9.04883C63.6465 9.45247 63.2949 9.85938 62.9434 10.2695C62.7741 10.4909 62.5951 10.6569 62.4062 10.7676C62.2174 10.8783 62.0579 10.9336 61.9277 10.9336C61.7259 10.9336 61.625 10.8294 61.625 10.6211C61.625 10.4323 61.7259 10.1589 61.9277 9.80078ZM67.5918 11.9004C67.8783 11.9004 68.1289 11.9362 68.3438 12.0078C68.5586 12.0794 68.7409 12.1576 68.8906 12.2422C69.0599 12.3464 69.2096 12.4603 69.3398 12.584C69.431 12.5254 69.5286 12.4701 69.6328 12.418C69.724 12.3724 69.8249 12.3333 69.9355 12.3008C70.0462 12.2617 70.1569 12.2422 70.2676 12.2422C70.554 12.2422 70.7754 12.3008 70.9316 12.418C71.0879 12.5352 71.166 12.6751 71.166 12.8379C71.166 12.9225 71.1432 13.0072 71.0977 13.0918L68.8125 17.418L68.998 17.252C69.7663 16.8027 70.3978 16.4512 70.8926 16.1973C71.3874 15.9368 71.7812 15.7448 72.0742 15.6211C72.3672 15.4974 72.5755 15.4225 72.6992 15.3965C72.8294 15.3639 72.9108 15.3477 72.9434 15.3477C73.0931 15.3477 73.207 15.4062 73.2852 15.5234C73.3698 15.6341 73.4121 15.7741 73.4121 15.9434C73.4121 16.1322 73.3568 16.3242 73.2461 16.5195C73.1419 16.7148 72.9792 16.8548 72.7578 16.9395C72.4648 17.0892 72.123 17.252 71.7324 17.4277C71.3418 17.597 70.9349 17.7858 70.5117 17.9941C70.0885 18.2025 69.6621 18.4368 69.2324 18.6973C68.8092 18.9512 68.4121 19.2344 68.041 19.5469L66.1465 22.9746C65.9902 23.3457 65.847 23.6484 65.7168 23.8828C65.5931 24.1172 65.4694 24.3027 65.3457 24.4395C65.222 24.5762 65.0951 24.6706 64.9648 24.7227C64.8346 24.7747 64.6849 24.8008 64.5156 24.8008C64.2617 24.8008 64.0599 24.7129 63.9102 24.5371C63.7669 24.3613 63.6953 24.1497 63.6953 23.9023C63.6953 23.6419 63.7572 23.3392 63.8809 22.9941C64.0046 22.6491 64.1771 22.2747 64.3984 21.8711C64.6263 21.474 64.8997 21.054 65.2188 20.6113C65.5378 20.1751 65.8926 19.7292 66.2832 19.2734L67.4941 17.7305C67.2467 17.9583 67.0026 18.1536 66.7617 18.3164C66.5208 18.4792 66.2897 18.6126 66.0684 18.7168C65.847 18.8145 65.6387 18.8861 65.4434 18.9316C65.2546 18.9772 65.0885 19 64.9453 19C64.6849 19 64.444 18.9414 64.2227 18.8242C64.0013 18.7005 63.8092 18.5312 63.6465 18.3164C63.4902 18.1016 63.3665 17.8477 63.2754 17.5547C63.1842 17.2617 63.1387 16.9427 63.1387 16.5977C63.1387 15.8815 63.2754 15.2337 63.5488 14.6543C63.8288 14.0749 64.1836 13.5833 64.6133 13.1797C65.0495 12.7695 65.528 12.4538 66.0488 12.2324C66.5762 12.0111 67.0905 11.9004 67.5918 11.9004ZM67.2207 13.6191C66.9147 13.6191 66.6185 13.6973 66.332 13.8535C66.0456 14.0033 65.7917 14.2051 65.5703 14.459C65.349 14.7064 65.1732 14.9928 65.043 15.3184C64.9128 15.6439 64.8477 15.9792 64.8477 16.3242C64.8477 16.4284 64.8542 16.5423 64.8672 16.666C64.8867 16.7832 64.9225 16.8939 64.9746 16.998C65.0332 17.1022 65.1146 17.1901 65.2188 17.2617C65.3294 17.3268 65.4792 17.3594 65.668 17.3594C65.8047 17.3594 65.9642 17.3008 66.1465 17.1836C66.3353 17.0599 66.5273 16.9069 66.7227 16.7246C66.9245 16.5358 67.1198 16.3307 67.3086 16.1094C67.4974 15.8815 67.6667 15.6602 67.8164 15.4453C67.9727 15.2305 68.0964 15.0384 68.1875 14.8691C68.2786 14.6934 68.3242 14.5632 68.3242 14.4785C68.3242 14.3353 68.2852 14.2116 68.207 14.1074C68.1289 13.9967 68.0312 13.9056 67.9141 13.834C67.8034 13.7624 67.6829 13.7103 67.5527 13.6777C67.429 13.6387 67.3184 13.6191 67.2207 13.6191ZM74.6328 10.5527C74.6328 10.403 74.6589 10.25 74.7109 10.0938C74.7695 9.93099 74.8542 9.78451 74.9648 9.6543C75.0755 9.52409 75.2122 9.41667 75.375 9.33203C75.5443 9.2474 75.7428 9.20508 75.9707 9.20508C76.3483 9.20508 76.612 9.27995 76.7617 9.42969C76.9115 9.57292 76.9863 9.75521 76.9863 9.97656C76.9863 10.1003 76.9603 10.237 76.9082 10.3867C76.8626 10.5365 76.791 10.6764 76.6934 10.8066C76.5957 10.9303 76.4688 11.0345 76.3125 11.1191C76.1562 11.2038 75.9707 11.2461 75.7559 11.2461C75.3522 11.2461 75.069 11.1842 74.9062 11.0605C74.7435 10.9303 74.6523 10.7611 74.6328 10.5527ZM73.5586 12.75C73.6693 12.5677 73.7962 12.4375 73.9395 12.3594C74.0827 12.2812 74.2292 12.2422 74.3789 12.2422C74.6263 12.2422 74.8379 12.3236 75.0137 12.4863C75.196 12.6426 75.2871 12.8444 75.2871 13.0918C75.2806 13.1504 75.2708 13.209 75.2578 13.2676C75.2513 13.3262 75.2318 13.3848 75.1992 13.4434C75.1081 13.6126 75.0332 13.7559 74.9746 13.873C74.916 13.9902 74.8607 14.1009 74.8086 14.2051C74.763 14.3027 74.7174 14.4004 74.6719 14.498C74.6263 14.5957 74.571 14.7129 74.5059 14.8496C74.4277 15.0124 74.3398 15.1914 74.2422 15.3867C74.1445 15.5755 74.0501 15.7708 73.959 15.9727C73.8743 16.1745 73.7995 16.373 73.7344 16.5684C73.6758 16.7637 73.6465 16.9427 73.6465 17.1055C73.6465 17.2812 73.6888 17.3984 73.7734 17.457C73.8646 17.5091 73.9915 17.5352 74.1543 17.5352C74.3366 17.5352 74.5254 17.4961 74.7207 17.418C74.9225 17.3398 75.1243 17.2389 75.3262 17.1152C75.528 16.9915 75.7266 16.8516 75.9219 16.6953C76.1172 16.5326 76.2995 16.3698 76.4688 16.207C76.6445 16.0443 76.804 15.888 76.9473 15.7383C77.097 15.5885 77.2207 15.4551 77.3184 15.3379C77.4486 15.2142 77.5788 15.1523 77.709 15.1523C77.8262 15.1523 77.9206 15.2044 77.9922 15.3086C78.0703 15.4128 78.1094 15.5462 78.1094 15.709C78.1094 15.8587 78.0703 16.0182 77.9922 16.1875C77.9206 16.3568 77.8001 16.5163 77.6309 16.666C77.2988 17.0046 76.9603 17.3301 76.6152 17.6426C76.2702 17.9486 75.9154 18.222 75.5508 18.4629C75.1927 18.6973 74.8314 18.8861 74.4668 19.0293C74.1022 19.1725 73.7344 19.2441 73.3633 19.2441C72.8359 19.2441 72.4193 19.1107 72.1133 18.8438C71.8138 18.5703 71.6641 18.1471 71.6641 17.5742C71.6641 17.2747 71.7064 16.9818 71.791 16.6953C71.8757 16.4089 71.9766 16.1322 72.0938 15.8652C72.2109 15.5918 72.3346 15.3314 72.4648 15.084C72.5951 14.8301 72.7057 14.5892 72.7969 14.3613C72.8294 14.2767 72.8848 14.1465 72.9629 13.9707C73.0475 13.7949 73.1354 13.6159 73.2266 13.4336C73.3307 13.2188 73.4414 12.9909 73.5586 12.75ZM82.9141 17.0176C82.9076 17.0306 82.9043 17.0469 82.9043 17.0664C82.9043 17.0859 82.901 17.1022 82.8945 17.1152C82.8945 17.2324 82.9238 17.3561 82.9824 17.4863C83.041 17.61 83.1354 17.6719 83.2656 17.6719C83.3177 17.6719 83.3568 17.6654 83.3828 17.6523C83.7539 17.5417 84.1283 17.3659 84.5059 17.125C84.89 16.8841 85.2578 16.6204 85.6094 16.334C85.9609 16.0475 86.2832 15.7546 86.5762 15.4551C86.8757 15.1556 87.123 14.8887 87.3184 14.6543C87.4095 14.5436 87.5104 14.4883 87.6211 14.4883C87.7188 14.4883 87.8034 14.5339 87.875 14.625C87.9531 14.7161 87.9922 14.8398 87.9922 14.9961C87.9922 15.1198 87.9564 15.2663 87.8848 15.4355C87.8197 15.6048 87.709 15.7871 87.5527 15.9824C87.1686 16.4056 86.7747 16.8125 86.3711 17.2031C85.9674 17.5938 85.5605 17.9421 85.1504 18.248C84.7402 18.5475 84.3301 18.7884 83.9199 18.9707C83.5163 19.153 83.1191 19.2441 82.7285 19.2441C82.2533 19.2441 81.8789 19.1107 81.6055 18.8438C81.332 18.5703 81.1953 18.1634 81.1953 17.623C81.1953 17.5905 81.1953 17.5579 81.1953 17.5254C81.1953 17.4863 81.1986 17.4505 81.2051 17.418C81.0553 17.6914 80.8633 17.9421 80.6289 18.1699C80.3945 18.3913 80.1374 18.5833 79.8574 18.7461C79.5775 18.9023 79.2878 19.0228 78.9883 19.1074C78.6888 19.1986 78.3991 19.2441 78.1191 19.2441C77.8783 19.2441 77.6569 19.2116 77.4551 19.1465C77.2533 19.0814 77.0775 18.9772 76.9277 18.834C76.7845 18.6908 76.6706 18.5085 76.5859 18.2871C76.5078 18.0658 76.4688 17.7988 76.4688 17.4863C76.4688 16.9395 76.5534 16.4219 76.7227 15.9336C76.8919 15.4388 77.1165 14.9863 77.3965 14.5762C77.6764 14.1595 77.9954 13.7884 78.3535 13.4629C78.7181 13.1309 79.0924 12.8509 79.4766 12.623C79.8672 12.3887 80.2546 12.2096 80.6387 12.0859C81.0228 11.9622 81.3743 11.9004 81.6934 11.9004C82.0645 11.9004 82.3835 11.9622 82.6504 12.0859C82.7806 12.151 82.901 12.2389 83.0117 12.3496C83.0378 12.291 83.0638 12.2357 83.0898 12.1836C83.1549 12.0273 83.2135 11.8939 83.2656 11.7832C83.3177 11.666 83.3535 11.5814 83.373 11.5293C83.3926 11.4707 83.4479 11.334 83.5391 11.1191C83.6302 10.9043 83.7344 10.6536 83.8516 10.3672C83.9753 10.0742 84.1055 9.76172 84.2422 9.42969C84.3854 9.09766 84.5156 8.78516 84.6328 8.49219C84.75 8.19922 84.8509 7.94857 84.9355 7.74023C85.0202 7.52539 85.0723 7.38867 85.0918 7.33008C85.1374 7.16732 85.1992 7.01107 85.2773 6.86133C85.3555 6.70508 85.4466 6.57161 85.5508 6.46094C85.6615 6.34375 85.7884 6.2526 85.9316 6.1875C86.0749 6.11589 86.2376 6.08008 86.4199 6.08008C86.6673 6.08008 86.8724 6.13542 87.0352 6.24609C87.1979 6.35026 87.2793 6.55534 87.2793 6.86133C87.2793 6.98503 87.263 7.11198 87.2305 7.24219C87.1979 7.3724 87.1589 7.49935 87.1133 7.62305C87.0742 7.74674 87.0286 7.87044 86.9766 7.99414C86.931 8.11133 86.8887 8.22201 86.8496 8.32617C86.5241 8.97721 86.1823 9.68685 85.8242 10.4551C85.4661 11.2168 85.1113 11.985 84.7598 12.7598C84.4082 13.5345 84.0729 14.2897 83.7539 15.0254C83.4349 15.7611 83.1549 16.4251 82.9141 17.0176ZM82.6211 13.1992C82.2305 13.2122 81.8203 13.2969 81.3906 13.4531C80.8958 13.6224 80.4434 13.8763 80.0332 14.2148C79.623 14.5469 79.2747 14.957 78.9883 15.4453C78.7083 15.9336 78.5488 16.4935 78.5098 17.125C78.5098 17.3854 78.6204 17.5156 78.8418 17.5156C79.1152 17.5156 79.3757 17.4603 79.623 17.3496C79.8704 17.2324 80.1048 17.0794 80.3262 16.8906C80.554 16.6953 80.7656 16.474 80.9609 16.2266C81.1562 15.9792 81.3353 15.722 81.498 15.4551C81.6673 15.1882 81.8171 14.9245 81.9473 14.6641C82.084 14.3971 82.2012 14.1497 82.2988 13.9219C82.3314 13.8503 82.377 13.7493 82.4355 13.6191C82.4876 13.4954 82.5495 13.3555 82.6211 13.1992ZM90.2773 13.668C89.9714 13.668 89.6751 13.7461 89.3887 13.9023C89.1022 14.0586 88.8483 14.2637 88.627 14.5176C88.4056 14.7715 88.2298 15.0579 88.0996 15.377C87.9694 15.6895 87.9043 16.0052 87.9043 16.3242C87.9043 16.4544 87.9108 16.5911 87.9238 16.7344C87.9434 16.8711 87.9824 16.998 88.041 17.1152C88.0996 17.2324 88.181 17.3301 88.2852 17.4082C88.3958 17.4863 88.5423 17.5254 88.7246 17.5254C88.8678 17.5254 89.0339 17.4635 89.2227 17.3398C89.418 17.2096 89.6165 17.0469 89.8184 16.8516C90.0267 16.6497 90.2285 16.4316 90.4238 16.1973C90.6191 15.9564 90.7949 15.722 90.9512 15.4941C91.1074 15.2663 91.2344 15.0612 91.332 14.8789C91.4297 14.6966 91.4785 14.5632 91.4785 14.4785C91.4785 14.3548 91.4362 14.2441 91.3516 14.1465C91.2669 14.0423 91.1628 13.9544 91.0391 13.8828C90.9154 13.8112 90.7819 13.7591 90.6387 13.7266C90.502 13.6875 90.3815 13.668 90.2773 13.668ZM97.0449 16.1875C96.9277 16.2982 96.7715 16.4512 96.5762 16.6465C96.3809 16.8418 96.1562 17.0534 95.9023 17.2812C95.6549 17.5091 95.388 17.7402 95.1016 17.9746C94.8216 18.2025 94.5319 18.4108 94.2324 18.5996C93.9395 18.7884 93.6497 18.9414 93.3633 19.0586C93.0768 19.1823 92.8066 19.2441 92.5527 19.2441C92.3249 19.2441 92.1296 19.1953 91.9668 19.0977C91.804 19 91.6673 18.873 91.5566 18.7168C91.4525 18.5605 91.3743 18.3848 91.3223 18.1895C91.2702 17.9876 91.2441 17.7826 91.2441 17.5742C91.2441 17.4375 91.2539 17.304 91.2734 17.1738C91.293 17.0371 91.3255 16.9102 91.3711 16.793C91.1693 17.0664 90.9382 17.3496 90.6777 17.6426C90.4238 17.929 90.1471 18.1927 89.8477 18.4336C89.5547 18.668 89.2454 18.86 88.9199 19.0098C88.6009 19.166 88.2754 19.2441 87.9434 19.2441C87.7741 19.2441 87.5755 19.2083 87.3477 19.1367C87.1263 19.0716 86.9147 18.9609 86.7129 18.8047C86.5111 18.6484 86.3418 18.4466 86.2051 18.1992C86.0684 17.9518 86 17.6491 86 17.291C86 17.0241 86.0391 16.7051 86.1172 16.334C86.2018 15.9629 86.3255 15.5788 86.4883 15.1816C86.6576 14.778 86.8691 14.3809 87.123 13.9902C87.3835 13.5996 87.6895 13.2513 88.041 12.9453C88.3926 12.6328 88.793 12.3822 89.2422 12.1934C89.6914 11.998 90.1927 11.9004 90.7461 11.9004C91.0326 11.9004 91.2832 11.9362 91.498 12.0078C91.7129 12.0794 91.8952 12.1576 92.0449 12.2422C92.2142 12.3464 92.3639 12.4603 92.4941 12.584C92.6048 12.5254 92.7188 12.4701 92.8359 12.418C92.9336 12.3724 93.0345 12.3333 93.1387 12.3008C93.2493 12.2617 93.3438 12.2422 93.4219 12.2422C93.6693 12.2422 93.8711 12.3105 94.0273 12.4473C94.1836 12.584 94.2617 12.7337 94.2617 12.8965C94.2617 12.9421 94.2585 12.9779 94.252 13.0039C94.2194 13.1276 94.1673 13.2839 94.0957 13.4727C94.0306 13.6615 93.9557 13.873 93.8711 14.1074C93.7865 14.3353 93.6986 14.5762 93.6074 14.8301C93.5228 15.0775 93.4447 15.3216 93.373 15.5625C93.3014 15.8034 93.2428 16.0312 93.1973 16.2461C93.1517 16.4544 93.1289 16.6335 93.1289 16.7832C93.1289 16.9785 93.1615 17.1413 93.2266 17.2715C93.2917 17.3952 93.4023 17.457 93.5586 17.457C93.6562 17.457 93.7702 17.4277 93.9004 17.3691C94.0371 17.304 94.1836 17.2194 94.3398 17.1152C94.4961 17.0111 94.6556 16.8939 94.8184 16.7637C94.9876 16.627 95.1504 16.4902 95.3066 16.3535C95.6712 16.028 96.0586 15.6569 96.4688 15.2402C96.5729 15.1556 96.6738 15.1133 96.7715 15.1133C96.9017 15.1133 97.0091 15.1784 97.0938 15.3086C97.1849 15.4323 97.2305 15.5723 97.2305 15.7285C97.2305 15.9108 97.1686 16.0638 97.0449 16.1875ZM112.035 12.7891C111.632 13.681 111.192 14.5306 110.717 15.3379C110.248 16.1387 109.743 16.8418 109.203 17.4473C108.669 18.0527 108.109 18.5345 107.523 18.8926C106.938 19.2441 106.332 19.4199 105.707 19.4199C105.342 19.4199 104.975 19.3613 104.604 19.2441C104.232 19.127 103.852 18.9447 103.461 18.6973C103.077 18.4434 102.686 18.1211 102.289 17.7305C101.898 17.3333 101.501 16.8548 101.098 16.2949C101 16.1842 100.932 16.0736 100.893 15.9629C100.854 15.8522 100.834 15.7318 100.834 15.6016C100.834 15.5039 100.863 15.3835 100.922 15.2402C100.987 15.097 101.078 14.9603 101.195 14.8301C101.312 14.6934 101.456 14.5794 101.625 14.4883C101.794 14.3906 101.986 14.3418 102.201 14.3418C102.331 14.3418 102.452 14.3646 102.562 14.4102C102.673 14.4557 102.774 14.5339 102.865 14.6445C103.386 15.6862 103.9 16.4479 104.408 16.9297C104.923 17.4115 105.43 17.6523 105.932 17.6523C106.296 17.6523 106.658 17.5352 107.016 17.3008C107.38 17.0599 107.742 16.7148 108.1 16.2656C108.458 15.8099 108.816 15.2565 109.174 14.6055C109.538 13.9544 109.903 13.2155 110.268 12.3887L113.07 6.57812C112.374 6.57161 111.798 6.56836 111.342 6.56836C110.893 6.56836 110.583 6.56836 110.414 6.56836C110.297 6.56836 110.189 6.54232 110.092 6.49023C110.001 6.43815 109.919 6.37305 109.848 6.29492C109.783 6.2168 109.73 6.12891 109.691 6.03125C109.652 5.93359 109.633 5.83919 109.633 5.74805C109.633 5.56576 109.704 5.41927 109.848 5.30859C109.991 5.19141 110.219 5.13281 110.531 5.13281C110.59 5.13281 110.648 5.13607 110.707 5.14258C110.772 5.14258 110.834 5.14258 110.893 5.14258C111.374 5.14258 111.856 5.12956 112.338 5.10352C112.826 5.07747 113.308 5.05143 113.783 5.02539C114.265 4.99284 114.743 4.96354 115.219 4.9375C115.701 4.91146 116.176 4.89844 116.645 4.89844C117.016 4.89844 117.318 4.91146 117.553 4.9375C117.794 4.95703 117.982 4.98958 118.119 5.03516C118.256 5.07422 118.35 5.1263 118.402 5.19141C118.454 5.25651 118.48 5.32812 118.48 5.40625C118.48 5.51042 118.454 5.61784 118.402 5.72852C118.357 5.83919 118.266 5.94336 118.129 6.04102C117.992 6.13216 117.797 6.20703 117.543 6.26562C117.296 6.32422 116.97 6.35352 116.566 6.35352C116.378 6.35352 116.169 6.36328 115.941 6.38281C115.72 6.39583 115.476 6.41862 115.209 6.45117L112.035 12.7891ZM116.742 13.6191C116.436 13.6191 116.14 13.6973 115.854 13.8535C115.574 14.0033 115.323 14.2051 115.102 14.459C114.887 14.7064 114.714 14.9896 114.584 15.3086C114.454 15.6211 114.389 15.9434 114.389 16.2754C114.389 16.3991 114.398 16.5358 114.418 16.6855C114.438 16.8288 114.477 16.9655 114.535 17.0957C114.6 17.2194 114.691 17.3236 114.809 17.4082C114.926 17.4928 115.082 17.5352 115.277 17.5352C115.577 17.5352 115.867 17.457 116.146 17.3008C116.433 17.138 116.687 16.9297 116.908 16.6758C117.13 16.4154 117.305 16.1224 117.436 15.7969C117.566 15.4714 117.631 15.1426 117.631 14.8105C117.631 14.6803 117.621 14.5469 117.602 14.4102C117.589 14.2669 117.549 14.1367 117.484 14.0195C117.426 13.9023 117.338 13.8079 117.221 13.7363C117.104 13.6582 116.944 13.6191 116.742 13.6191ZM117.25 11.9004C117.497 11.9004 117.761 11.9329 118.041 11.998C118.327 12.0632 118.591 12.1738 118.832 12.3301C119.073 12.4863 119.271 12.6947 119.428 12.9551C119.59 13.209 119.672 13.5247 119.672 13.9023C119.672 14.0977 119.646 14.3223 119.594 14.5762C119.542 14.8236 119.464 15.084 119.359 15.3574C119.424 15.4355 119.499 15.4909 119.584 15.5234C119.669 15.556 119.76 15.5723 119.857 15.5723C119.994 15.5723 120.144 15.5332 120.307 15.4551C120.476 15.377 120.648 15.276 120.824 15.1523C121 15.0286 121.176 14.8887 121.352 14.7324C121.527 14.5762 121.693 14.4199 121.85 14.2637C122.006 14.1074 122.146 13.9609 122.27 13.8242C122.4 13.681 122.507 13.5605 122.592 13.4629C122.637 13.4173 122.693 13.3945 122.758 13.3945C122.849 13.3945 122.93 13.4434 123.002 13.541C123.074 13.6322 123.109 13.7624 123.109 13.9316C123.109 14.1009 123.057 14.2962 122.953 14.5176C122.855 14.7389 122.67 14.9701 122.396 15.2109C122.24 15.3802 122.061 15.5755 121.859 15.7969C121.658 16.0182 121.443 16.2266 121.215 16.4219C120.987 16.6172 120.749 16.7832 120.502 16.9199C120.255 17.0566 120.007 17.125 119.76 17.125C119.59 17.125 119.424 17.099 119.262 17.0469C119.105 16.9948 118.946 16.9102 118.783 16.793C118.549 17.1576 118.282 17.4896 117.982 17.7891C117.683 18.0885 117.348 18.3457 116.977 18.5605C116.612 18.7754 116.215 18.9414 115.785 19.0586C115.362 19.1823 114.91 19.2441 114.428 19.2441C114.245 19.2441 114.034 19.2083 113.793 19.1367C113.552 19.0651 113.321 18.9479 113.1 18.7852C112.885 18.6159 112.702 18.3978 112.553 18.1309C112.403 17.8639 112.328 17.5384 112.328 17.1543C112.328 16.8939 112.37 16.5814 112.455 16.2168C112.54 15.8522 112.667 15.4779 112.836 15.0938C113.012 14.7031 113.23 14.319 113.49 13.9414C113.757 13.5573 114.073 13.2155 114.438 12.916C114.802 12.61 115.219 12.3659 115.688 12.1836C116.156 11.9948 116.677 11.9004 117.25 11.9004ZM123.637 10.5527C123.637 10.403 123.663 10.25 123.715 10.0938C123.773 9.93099 123.858 9.78451 123.969 9.6543C124.079 9.52409 124.216 9.41667 124.379 9.33203C124.548 9.2474 124.747 9.20508 124.975 9.20508C125.352 9.20508 125.616 9.27995 125.766 9.42969C125.915 9.57292 125.99 9.75521 125.99 9.97656C125.99 10.1003 125.964 10.237 125.912 10.3867C125.867 10.5365 125.795 10.6764 125.697 10.8066C125.6 10.9303 125.473 11.0345 125.316 11.1191C125.16 11.2038 124.975 11.2461 124.76 11.2461C124.356 11.2461 124.073 11.1842 123.91 11.0605C123.747 10.9303 123.656 10.7611 123.637 10.5527ZM122.562 12.75C122.673 12.5677 122.8 12.4375 122.943 12.3594C123.087 12.2812 123.233 12.2422 123.383 12.2422C123.63 12.2422 123.842 12.3236 124.018 12.4863C124.2 12.6426 124.291 12.8444 124.291 13.0918C124.285 13.1504 124.275 13.209 124.262 13.2676C124.255 13.3262 124.236 13.3848 124.203 13.4434C124.112 13.6126 124.037 13.7559 123.979 13.873C123.92 13.9902 123.865 14.1009 123.812 14.2051C123.767 14.3027 123.721 14.4004 123.676 14.498C123.63 14.5957 123.575 14.7129 123.51 14.8496C123.432 15.0124 123.344 15.1914 123.246 15.3867C123.148 15.5755 123.054 15.7708 122.963 15.9727C122.878 16.1745 122.803 16.373 122.738 16.5684C122.68 16.7637 122.65 16.9427 122.65 17.1055C122.65 17.2812 122.693 17.3984 122.777 17.457C122.868 17.5091 122.995 17.5352 123.158 17.5352C123.34 17.5352 123.529 17.4961 123.725 17.418C123.926 17.3398 124.128 17.2389 124.33 17.1152C124.532 16.9915 124.73 16.8516 124.926 16.6953C125.121 16.5326 125.303 16.3698 125.473 16.207C125.648 16.0443 125.808 15.888 125.951 15.7383C126.101 15.5885 126.225 15.4551 126.322 15.3379C126.452 15.2142 126.583 15.1523 126.713 15.1523C126.83 15.1523 126.924 15.2044 126.996 15.3086C127.074 15.4128 127.113 15.5462 127.113 15.709C127.113 15.8587 127.074 16.0182 126.996 16.1875C126.924 16.3568 126.804 16.5163 126.635 16.666C126.303 17.0046 125.964 17.3301 125.619 17.6426C125.274 17.9486 124.919 18.222 124.555 18.4629C124.197 18.6973 123.835 18.8861 123.471 19.0293C123.106 19.1725 122.738 19.2441 122.367 19.2441C121.84 19.2441 121.423 19.1107 121.117 18.8438C120.818 18.5703 120.668 18.1471 120.668 17.5742C120.668 17.2747 120.71 16.9818 120.795 16.6953C120.88 16.4089 120.98 16.1322 121.098 15.8652C121.215 15.5918 121.339 15.3314 121.469 15.084C121.599 14.8301 121.71 14.5892 121.801 14.3613C121.833 14.2767 121.889 14.1465 121.967 13.9707C122.051 13.7949 122.139 13.6159 122.23 13.4336C122.335 13.2188 122.445 12.9909 122.562 12.75ZM129.828 13.668C129.522 13.668 129.226 13.7461 128.939 13.9023C128.653 14.0586 128.399 14.2637 128.178 14.5176C127.956 14.7715 127.781 15.0579 127.65 15.377C127.52 15.6895 127.455 16.0052 127.455 16.3242C127.455 16.4544 127.462 16.5911 127.475 16.7344C127.494 16.8711 127.533 16.998 127.592 17.1152C127.65 17.2324 127.732 17.3301 127.836 17.4082C127.947 17.4863 128.093 17.5254 128.275 17.5254C128.419 17.5254 128.585 17.4635 128.773 17.3398C128.969 17.2096 129.167 17.0469 129.369 16.8516C129.577 16.6497 129.779 16.4316 129.975 16.1973C130.17 15.9564 130.346 15.722 130.502 15.4941C130.658 15.2663 130.785 15.0612 130.883 14.8789C130.98 14.6966 131.029 14.5632 131.029 14.4785C131.029 14.3548 130.987 14.2441 130.902 14.1465C130.818 14.0423 130.714 13.9544 130.59 13.8828C130.466 13.8112 130.333 13.7591 130.189 13.7266C130.053 13.6875 129.932 13.668 129.828 13.668ZM136.596 16.1875C136.479 16.2982 136.322 16.4512 136.127 16.6465C135.932 16.8418 135.707 17.0534 135.453 17.2812C135.206 17.5091 134.939 17.7402 134.652 17.9746C134.372 18.2025 134.083 18.4108 133.783 18.5996C133.49 18.7884 133.201 18.9414 132.914 19.0586C132.628 19.1823 132.357 19.2441 132.104 19.2441C131.876 19.2441 131.68 19.1953 131.518 19.0977C131.355 19 131.218 18.873 131.107 18.7168C131.003 18.5605 130.925 18.3848 130.873 18.1895C130.821 17.9876 130.795 17.7826 130.795 17.5742C130.795 17.4375 130.805 17.304 130.824 17.1738C130.844 17.0371 130.876 16.9102 130.922 16.793C130.72 17.0664 130.489 17.3496 130.229 17.6426C129.975 17.929 129.698 18.1927 129.398 18.4336C129.105 18.668 128.796 18.86 128.471 19.0098C128.152 19.166 127.826 19.2441 127.494 19.2441C127.325 19.2441 127.126 19.2083 126.898 19.1367C126.677 19.0716 126.465 18.9609 126.264 18.8047C126.062 18.6484 125.893 18.4466 125.756 18.1992C125.619 17.9518 125.551 17.6491 125.551 17.291C125.551 17.0241 125.59 16.7051 125.668 16.334C125.753 15.9629 125.876 15.5788 126.039 15.1816C126.208 14.778 126.42 14.3809 126.674 13.9902C126.934 13.5996 127.24 13.2513 127.592 12.9453C127.943 12.6328 128.344 12.3822 128.793 12.1934C129.242 11.998 129.743 11.9004 130.297 11.9004C130.583 11.9004 130.834 11.9362 131.049 12.0078C131.264 12.0794 131.446 12.1576 131.596 12.2422C131.765 12.3464 131.915 12.4603 132.045 12.584C132.156 12.5254 132.27 12.4701 132.387 12.418C132.484 12.3724 132.585 12.3333 132.689 12.3008C132.8 12.2617 132.895 12.2422 132.973 12.2422C133.22 12.2422 133.422 12.3105 133.578 12.4473C133.734 12.584 133.812 12.7337 133.812 12.8965C133.812 12.9421 133.809 12.9779 133.803 13.0039C133.77 13.1276 133.718 13.2839 133.646 13.4727C133.581 13.6615 133.507 13.873 133.422 14.1074C133.337 14.3353 133.249 14.5762 133.158 14.8301C133.074 15.0775 132.995 15.3216 132.924 15.5625C132.852 15.8034 132.794 16.0312 132.748 16.2461C132.702 16.4544 132.68 16.6335 132.68 16.7832C132.68 16.9785 132.712 17.1413 132.777 17.2715C132.842 17.3952 132.953 17.457 133.109 17.457C133.207 17.457 133.321 17.4277 133.451 17.3691C133.588 17.304 133.734 17.2194 133.891 17.1152C134.047 17.0111 134.206 16.8939 134.369 16.7637C134.538 16.627 134.701 16.4902 134.857 16.3535C135.222 16.028 135.609 15.6569 136.02 15.2402C136.124 15.1556 136.225 15.1133 136.322 15.1133C136.452 15.1133 136.56 15.1784 136.645 15.3086C136.736 15.4323 136.781 15.5723 136.781 15.7285C136.781 15.9108 136.719 16.0638 136.596 16.1875ZM138.383 13.502C138.78 13.7103 139.135 13.9479 139.447 14.2148C139.76 14.4818 140.023 14.765 140.238 15.0645C140.46 15.3574 140.626 15.6569 140.736 15.9629C140.854 16.2689 140.912 16.5684 140.912 16.8613C140.912 17.2324 140.805 17.5677 140.59 17.8672C140.382 18.1602 140.105 18.4108 139.76 18.6191C139.421 18.821 139.031 18.974 138.588 19.0781C138.152 19.1888 137.709 19.2441 137.26 19.2441C136.921 19.2441 136.592 19.2051 136.273 19.127C135.954 19.0553 135.661 18.9414 135.395 18.7852C135.134 18.6289 134.91 18.4303 134.721 18.1895C134.532 17.9421 134.398 17.6491 134.32 17.3105C134.307 17.2585 134.301 17.2161 134.301 17.1836C134.301 17.0078 134.363 16.8581 134.486 16.7344C134.61 16.6042 134.747 16.5391 134.896 16.5391C134.968 16.5391 135.046 16.5521 135.131 16.5781C135.222 16.6042 135.29 16.6628 135.336 16.7539C135.421 16.9102 135.538 17.0501 135.688 17.1738C135.844 17.2975 136.016 17.4049 136.205 17.4961C136.394 17.5807 136.592 17.6491 136.801 17.7012C137.016 17.7467 137.224 17.7695 137.426 17.7695C137.634 17.7695 137.833 17.75 138.021 17.7109C138.217 17.6719 138.386 17.61 138.529 17.5254C138.679 17.4408 138.796 17.3333 138.881 17.2031C138.965 17.0729 139.008 16.9134 139.008 16.7246C139.008 16.3926 138.933 16.0866 138.783 15.8066C138.633 15.5267 138.438 15.2695 138.197 15.0352C137.963 14.7943 137.693 14.5729 137.387 14.3711C137.087 14.1628 136.788 13.9642 136.488 13.7754C136.456 13.7559 136.407 13.7005 136.342 13.6094C136.277 13.5117 136.244 13.4141 136.244 13.3164C136.244 13.2383 136.264 13.1764 136.303 13.1309C136.407 12.9941 136.527 12.8542 136.664 12.7109C136.801 12.5677 136.947 12.4375 137.104 12.3203C137.26 12.1966 137.429 12.099 137.611 12.0273C137.794 11.9492 137.982 11.9102 138.178 11.9102C138.321 11.9102 138.454 11.9297 138.578 11.9688C138.702 12.0078 138.806 12.0599 138.891 12.125C138.975 12.1836 139.04 12.252 139.086 12.3301C139.138 12.4017 139.164 12.4701 139.164 12.5352C139.164 12.6263 139.141 12.7142 139.096 12.7988C139.05 12.8835 138.988 12.9648 138.91 13.043C138.839 13.1211 138.754 13.1992 138.656 13.2773C138.565 13.3555 138.474 13.4303 138.383 13.502Z" fill="white"/>
</svg>
