<svg width="25" height="25" viewBox="0 0 25 25" fill="none" xmlns="http://www.w3.org/2000/svg">
<path d="M12.5028 6.08896C8.95566 6.08896 6.09453 8.95008 6.09453 12.4972C6.09453 16.0443 8.95566 18.9055 12.5028 18.9055C16.0499 18.9055 18.911 16.0443 18.911 12.4972C18.911 8.95008 16.0499 6.08896 12.5028 6.08896ZM12.5028 16.6634C10.2105 16.6634 8.33659 14.795 8.33659 12.4972C8.33659 10.1994 10.205 8.33101 12.5028 8.33101C14.8006 8.33101 16.669 10.1994 16.669 12.4972C16.669 14.795 14.795 16.6634 12.5028 16.6634ZM20.6679 5.82683C20.6679 6.65784 19.9986 7.32153 19.1732 7.32153C18.3422 7.32153 17.6785 6.65226 17.6785 5.82683C17.6785 5.00139 18.3477 4.33212 19.1732 4.33212C19.9986 4.33212 20.6679 5.00139 20.6679 5.82683ZM24.9122 7.34384C24.8173 5.34161 24.36 3.56804 22.8932 2.1068C21.432 0.645566 19.6584 0.188232 17.6562 0.0878416C15.5926 -0.0292805 9.40742 -0.0292805 7.34384 0.0878416C5.34718 0.182655 3.57362 0.639989 2.1068 2.10123C0.639989 3.56246 0.188232 5.33603 0.0878416 7.33826C-0.0292805 9.40184 -0.0292805 15.587 0.0878416 17.6506C0.182655 19.6528 0.639989 21.4264 2.1068 22.8876C3.57362 24.3489 5.34161 24.8062 7.34384 24.9066C9.40742 25.0237 15.5926 25.0237 17.6562 24.9066C19.6584 24.8118 21.432 24.3544 22.8932 22.8876C24.3544 21.4264 24.8118 19.6528 24.9122 17.6506C25.0293 15.587 25.0293 9.40742 24.9122 7.34384ZM22.2462 19.8647C21.8112 20.9579 20.969 21.8001 19.8703 22.2407C18.225 22.8932 14.321 22.7426 12.5028 22.7426C10.6846 22.7426 6.77496 22.8876 5.13525 22.2407C4.04211 21.8056 3.19994 20.9635 2.75934 19.8647C2.1068 18.2195 2.25739 14.3154 2.25739 12.4972C2.25739 10.679 2.11238 6.76938 2.75934 5.12967C3.19437 4.03653 4.03653 3.19437 5.13525 2.75376C6.78054 2.10123 10.6846 2.25181 12.5028 2.25181C14.321 2.25181 18.2306 2.1068 19.8703 2.75376C20.9635 3.18879 21.8056 4.03095 22.2462 5.12967C22.8988 6.77496 22.7482 10.679 22.7482 12.4972C22.7482 14.3154 22.8988 18.225 22.2462 19.8647Z" fill="#555555"/>
</svg>
