<svg width="26" height="25" viewBox="0 0 26 25" fill="none" xmlns="http://www.w3.org/2000/svg">
<path d="M12.5056 6.09032C8.95766 6.09032 6.09589 8.95208 6.09589 12.5C6.09589 16.0479 8.95766 18.9097 12.5056 18.9097C16.0535 18.9097 18.9153 16.0479 18.9153 12.5C18.9153 8.95208 16.0535 6.09032 12.5056 6.09032ZM12.5056 16.6671C10.2128 16.6671 8.33845 14.7983 8.33845 12.5C8.33845 10.2017 10.2072 8.33287 12.5056 8.33287C14.8039 8.33287 16.6727 10.2017 16.6727 12.5C16.6727 14.7983 14.7983 16.6671 12.5056 16.6671ZM20.6725 5.82813C20.6725 6.65932 20.0031 7.32316 19.1775 7.32316C18.3463 7.32316 17.6824 6.65374 17.6824 5.82813C17.6824 5.00251 18.3518 4.33309 19.1775 4.33309C20.0031 4.33309 20.6725 5.00251 20.6725 5.82813ZM24.9177 7.34548C24.8229 5.3428 24.3654 3.56884 22.8983 2.10727C21.4367 0.64571 19.6628 0.188274 17.6601 0.0878612C15.5961 -0.0292871 9.40952 -0.0292871 7.34548 0.0878612C5.34838 0.182696 3.57442 0.640132 2.10727 2.1017C0.640132 3.56326 0.188274 5.33722 0.0878612 7.3399C-0.0292871 9.40394 -0.0292871 15.5905 0.0878612 17.6545C0.182696 19.6572 0.640132 21.4312 2.10727 22.8927C3.57442 24.3543 5.3428 24.8117 7.34548 24.9121C9.40952 25.0293 15.5961 25.0293 17.6601 24.9121C19.6628 24.8173 21.4367 24.3599 22.8983 22.8927C24.3599 21.4312 24.8173 19.6572 24.9177 17.6545C25.0349 15.5905 25.0349 9.40952 24.9177 7.34548ZM22.2512 19.8692C21.8161 20.9626 20.9737 21.8049 19.8748 22.2456C18.2291 22.8983 14.3242 22.7477 12.5056 22.7477C10.687 22.7477 6.77647 22.8927 5.13639 22.2456C4.04301 21.8105 3.20066 20.9681 2.75996 19.8692C2.10727 18.2235 2.25789 14.3186 2.25789 12.5C2.25789 10.6814 2.11285 6.77089 2.75996 5.13082C3.19508 4.03743 4.03743 3.19508 5.13639 2.75438C6.78205 2.1017 10.687 2.25232 12.5056 2.25232C14.3242 2.25232 18.2347 2.10727 19.8748 2.75438C20.9682 3.1895 21.8105 4.03185 22.2512 5.13082C22.9039 6.77647 22.7533 10.6814 22.7533 12.5C22.7533 14.3186 22.9039 18.2291 22.2512 19.8692Z" fill="white"/>
</svg>
