<svg width="18" height="25" viewBox="0 0 18 25" fill="none" xmlns="http://www.w3.org/2000/svg">
<path d="M8.75 23.4694C8.57664 23.2629 8.37792 23.023 8.15927 22.7536C7.35184 21.7588 6.27691 20.3669 5.20396 18.7766C4.1291 17.1835 3.06856 15.4094 2.27979 13.6488C1.48515 11.875 1 10.1883 1 8.75C1 4.46479 4.46479 1 8.75 1C13.0352 1 16.5 4.46479 16.5 8.75C16.5 10.1883 16.0149 11.875 15.2202 13.6488C14.4314 15.4094 13.3709 17.1835 12.296 18.7766C11.2231 20.3669 10.1482 21.7588 9.34073 22.7536C9.12208 23.023 8.92336 23.2629 8.75 23.4694ZM4.625 8.75C4.625 11.0273 6.47272 12.875 8.75 12.875C11.0273 12.875 12.875 11.0273 12.875 8.75C12.875 6.47272 11.0273 4.625 8.75 4.625C6.47272 4.625 4.625 6.47272 4.625 8.75Z" stroke="#555555" stroke-width="2"/>
</svg>
