<svg width="30" height="30" viewBox="0 0 30 30" fill="none" xmlns="http://www.w3.org/2000/svg">
<g clip-path="url(#clip0)">
<path d="M6.52113 22.2677C7.658 22.2677 8.75114 21.8362 9.58192 21.0163L13.9984 16.6577C14.3045 16.3556 14.8293 16.3556 15.1791 16.6577L19.6387 21.0592C20.4695 21.8792 21.5626 22.3109 22.6995 22.3109H23.574L17.9772 27.8345C16.2282 29.5606 13.3861 29.5606 11.6371 27.8345L5.99677 22.2677H6.52113Z" fill="white"/>
<path d="M22.6555 6.8182C21.5187 6.8182 20.4256 7.24991 19.5948 8.06983L15.1346 12.4713C14.8286 12.7734 14.3038 12.7734 13.9539 12.4713L9.53791 8.11282C8.70713 7.2929 7.61399 6.8614 6.47712 6.8614H5.95233L11.593 1.29461C13.342 -0.431538 16.1842 -0.431538 17.9333 1.29461L23.53 6.8182H22.6555Z" fill="white"/>
<path d="M1.31741 11.3923L4.68436 8.06957H6.52049C7.30755 8.06957 8.09478 8.37164 8.66322 8.93263L13.0793 13.291C13.4728 13.6793 14.0415 13.8953 14.5661 13.8953C15.0908 13.8953 15.6594 13.6793 16.053 13.291L20.5127 8.88945C21.081 8.32845 21.8682 8.02637 22.6554 8.02637H24.8417L28.2086 11.349C29.9576 13.0752 29.9576 15.8802 28.2086 17.6063L24.8417 20.9293H22.6554C21.8682 20.9293 21.081 20.6272 20.5127 20.0662L16.053 15.6644C15.2659 14.8877 13.8665 14.8877 13.0357 15.6644L8.61966 20.023C8.05123 20.584 7.26399 20.886 6.47694 20.886H4.64038L1.27343 17.5634C-0.431865 15.9235 -0.431608 13.1184 1.31741 11.3923Z" fill="white"/>
</g>
<defs>
<clipPath id="clip0">
<rect width="30" height="30" fill="white"/>
</clipPath>
</defs>
</svg>
