<svg width="40" height="40" viewBox="0 0 40 40" fill="none" xmlns="http://www.w3.org/2000/svg">
<path d="M34.0089 5.8125C30.2679 2.0625 25.2857 0 19.9911 0C9.0625 0 0.169643 8.89286 0.169643 19.8214C0.169643 23.3125 1.08036 26.7232 2.8125 29.7321L0 40L10.5089 37.2411C13.4018 38.8214 16.6607 39.6518 19.9821 39.6518H19.9911C30.9107 39.6518 40 30.7589 40 19.8304C40 14.5357 37.75 9.5625 34.0089 5.8125ZM19.9911 36.3125C17.0268 36.3125 14.125 35.5179 11.5982 34.0179L11 33.6607L4.76786 35.2946L6.42857 29.2143L6.03571 28.5893C4.38393 25.9643 3.51786 22.9375 3.51786 19.8214C3.51786 10.7411 10.9107 3.34821 20 3.34821C24.4018 3.34821 28.5357 5.0625 31.6429 8.17857C34.75 11.2946 36.6607 15.4286 36.6518 19.8304C36.6518 28.9196 29.0714 36.3125 19.9911 36.3125ZM29.0268 23.9732C28.5357 23.7232 26.0982 22.5268 25.6429 22.3661C25.1875 22.1964 24.8571 22.1161 24.5268 22.6161C24.1964 23.1161 23.25 24.2232 22.9554 24.5625C22.6696 24.8929 22.375 24.9375 21.8839 24.6875C18.9732 23.2321 17.0625 22.0893 15.1429 18.7946C14.6339 17.9196 15.6518 17.9821 16.5982 16.0893C16.7589 15.7589 16.6786 15.4732 16.5536 15.2232C16.4286 14.9732 15.4375 12.5357 15.0268 11.5446C14.625 10.5804 14.2143 10.7143 13.9107 10.6964C13.625 10.6786 13.2946 10.6786 12.9643 10.6786C12.6339 10.6786 12.0982 10.8036 11.6429 11.2946C11.1875 11.7946 9.91071 12.9911 9.91071 15.4286C9.91071 17.8661 11.6875 20.2232 11.9286 20.5536C12.1786 20.8839 15.4196 25.8839 20.3929 28.0357C23.5357 29.3929 24.7679 29.5089 26.3393 29.2768C27.2946 29.1339 29.2679 28.0804 29.6786 26.9196C30.0893 25.7589 30.0893 24.7679 29.9643 24.5625C29.8482 24.3393 29.5179 24.2143 29.0268 23.9732Z" fill="#FDD835"/>
</svg>
